<svg width="520" height="449" viewBox="0 0 520 449" fill="none" xmlns="http://www.w3.org/2000/svg">
<path d="M260.966 245.657C268.064 244.657 275.616 244.682 282.226 241.608C286.515 239.613 288.401 234.709 288.775 230.333C289.14 226.048 287.65 220.895 286.081 216.994C283.876 211.513 280.978 206.632 276.919 202.299C269.137 193.992 257.931 194.536 248.288 199.412C240.123 203.54 233.394 208.685 229.029 216.816C226.22 222.049 224.127 228.367 226.722 234.075C229.183 239.488 234.228 245.485 240.481 246.528C242.656 246.89 245.031 246.273 247.256 246.237C248.613 246.216 249.933 245.778 251.288 245.657C254.887 245.335 258.521 245.282 262.128 245.076" stroke="#0012D6" stroke-width="3" stroke-linecap="round"/>
<path d="M216.544 328.114C216.544 305.552 216.768 280.285 231.513 261.755C233.884 258.774 236.412 255.817 239.545 253.609C242.772 251.336 246.156 250.066 249.82 248.705C256.91 246.072 265.087 245.362 272.16 248.27C277.001 250.26 279.345 255.049 282.145 259.109C286.542 265.484 289.779 271.971 292.033 279.401C294.851 288.693 295.808 298.737 296.081 308.419C296.163 311.337 295.597 314.198 295.517 317.081C295.49 318.044 295.631 318.999 294.936 319.694" stroke="#0012D6" stroke-width="3" stroke-linecap="round"/>
<path d="M243.255 200.075C241.166 198.465 229.739 180.942 229.739 181.545C229.739 186.761 232.304 202.003 232.304 207.197" stroke="#0012D6" stroke-width="3" stroke-linecap="round"/>
<path d="M273.742 195.718C276.398 192.16 283.028 183.409 286.175 180.263C288.636 177.802 282.327 197.587 282.327 203.349" stroke="#0012D6" stroke-width="3" stroke-linecap="round"/>
<path d="M257.773 223.591C249.483 228.416 263.436 229.403 262.095 226.139C261.427 224.512 259.418 222.263 257.563 222.01C254.831 221.638 257.414 226.393 257.773 227.075" stroke="#0012D6" stroke-width="2" stroke-linecap="round"/>
<path d="M268.411 213.143L270.058 214.368" stroke="#0012D6" stroke-width="2" stroke-linecap="round"/>
<path d="M248.419 212.877L251.109 215.157" stroke="#0012D6" stroke-width="2" stroke-linecap="round"/>
<path d="M253.128 223.01C249.346 220.469 244.296 218.945 239.772 218.945" stroke="#0012D6" stroke-width="2" stroke-linecap="round"/>
<path d="M253.999 228.527C251.293 229.73 248.755 231.29 245.869 232.011" stroke="#0012D6" stroke-width="2" stroke-linecap="round"/>
<path d="M254.579 227.075C251.64 225.75 248.314 225.197 245.288 226.494" stroke="#0012D6" stroke-width="2" stroke-linecap="round"/>
<path d="M263.87 225.914C266.109 223.888 269.756 222.43 272.871 222.43" stroke="#0012D6" stroke-width="2" stroke-linecap="round"/>
<path d="M264.16 229.398C267.694 228.052 271.584 228.495 275.193 229.398" stroke="#0012D6" stroke-width="2" stroke-linecap="round"/>
<path d="M261.257 229.979C264.413 232.233 267.92 234.103 270.838 236.657" stroke="#0012D6" stroke-width="2" stroke-linecap="round"/>
<path d="M221.19 278.465C219.566 276.029 216.982 274.616 214.754 272.771C211.71 270.25 208.514 267.829 205.254 265.594C203.455 264.36 201.609 263.174 199.705 262.109C199.117 261.781 198.323 261.554 197.85 261.045C197.651 260.83 197.4 260.209 197.673 260.755" stroke="#0012D6" stroke-width="3" stroke-linecap="round"/>
<path d="M313.228 258.431C305.538 260.6 300.27 266.86 293.484 270.561C292.241 271.239 291.099 272.38 289.71 272.658" stroke="#0012D6" stroke-width="3" stroke-linecap="round"/>
<path d="M318.163 242.753C318.163 249.321 317.481 255.813 317.163 262.367C316.896 267.88 317.217 273.908 316.131 279.336" stroke="#0012D6" stroke-width="3" stroke-linecap="round"/>
<path d="M317.293 242.463C314.173 239.292 313.395 241.357 310.544 237.98C309.564 236.818 309.638 231.791 309.262 230.284" stroke="#0012D6" stroke-width="2" stroke-linecap="round"/>
<path d="M318.163 229.688V239.85" stroke="#0012D6" stroke-width="2" stroke-linecap="round"/>
<path d="M327.217 230.284C323.198 232.201 334.913 240.545 320.903 240.277" stroke="#0012D6" stroke-width="2" stroke-linecap="round"/>
<path d="M249.823 96.5192C251.008 98.11 252.162 99.83 253.034 101.622C253.383 102.338 253.639 103.148 253.345 103.924C252.591 105.915 250.128 106.608 248.834 108.172C247.863 109.347 247.232 110.962 247.174 112.469C247.134 113.495 247.311 115.279 248.395 115.772C249.943 116.477 252.027 114.241 253.183 113.495C253.815 113.088 254.425 113.073 254.832 113.783C256.612 116.884 254.761 121.236 251.081 121.56" stroke="#0012D6" stroke-linecap="round"/>
<path d="M247.618 0.181597C246.382 10.22 259.565 19.5652 256.928 29.2908C254.214 36.1564 250.604 53.2435 252.101 61.1992C252.724 64.5077 253.921 67.6803 254.564 70.9716C255.084 73.6299 255.237 76.6801 256.345 79.1876C256.732 80.0616 256.697 80.9068 256.95 81.8035C257.226 82.7815 257.468 83.69 257.599 84.7059C258.19 89.3011 256.494 95.5463 251.732 97.3829C246.377 99.4482 242.712 92.8001 241.144 88.8017C240.315 86.685 239.952 84.6163 239.916 82.3334C239.882 80.18 239.942 77.8015 240.565 75.7224C241.351 73.0984 242.289 70.3683 243.807 68.0761C244.565 66.9326 245.433 65.8608 246.177 64.7097C246.364 64.4189 246.584 64.1108 246.486 63.7553" stroke="#0012D6" stroke-linecap="round"/>
<path d="M249.426 75.6949C249.681 74.0524 249.617 72.1676 249.195 70.6286C248.773 69.0896 248.295 67.7551 247.861 67.2713" stroke="#0012D6" stroke-linecap="round"/>
<path d="M255.518 74.8284C257.378 75.0554 262.131 75.2167 262.38 72.3068C262.513 70.7471 261.207 69.3785 259.896 68.7698C258.533 68.1368 257.671 69.1439 256.674 70.0749C255.22 71.4326 255.672 71.9708 255.562 74.0059" stroke="#0012D6" stroke-linecap="round"/>
<path d="M255.636 74.8346C258.576 74.4 263.931 74.6415 264.091 78.7548C264.155 80.382 262.173 80.897 260.887 80.8273C259.814 80.7691 259.244 81.037 258.332 79.2097C257.684 77.9111 256.473 77.6482 255.558 76.2797" stroke="#0012D6" stroke-linecap="round"/>
<path d="M255.64 73.8177C252.676 76.3058 249.486 77.8212 245.646 77.1989C244.139 76.9548 242.906 76.4751 241.588 75.7152C241.226 75.5064 241.101 75.2595 240.696 75.1739" stroke="#0012D6" stroke-linecap="round"/>
<path d="M253.835 79.177C253.197 80.035 252.577 80.9199 251.861 81.7155C251.776 81.81 251.691 81.922 251.575 81.9748" stroke="#0012D6" stroke-linecap="round"/>
<path d="M251.319 78.908C251.748 79.4804 252.213 80.0266 252.667 80.5788C252.976 80.9546 253.283 81.3328 253.606 81.6968C253.639 81.7341 253.748 81.8291 253.7 81.8133" stroke="#0012D6" stroke-linecap="round"/>
<path d="M126.64 300.36H136.112L138.544 323.464L141.04 300.36H158L160.496 323.464L162.992 300.36H172.464L169.008 333H151.984L149.552 309.896L147.12 333H130.032L126.64 300.36ZM188.1 311.368C187.716 310.536 186.884 309.96 185.86 309.96C184.58 309.96 183.492 311.048 183.492 312.328V312.648L188.1 311.368ZM173.956 321.096V312.328C173.956 305.8 179.332 300.36 185.924 300.36C189.572 300.36 192.9 302.088 195.076 304.712C202.948 314.184 189.7 316.872 183.492 318.536V321.096C183.492 322.376 184.58 323.464 185.924 323.464C187.204 323.464 188.292 322.376 188.292 321.096V319.112H197.828V321.096C197.828 327.624 192.452 333.064 185.86 333.064C179.332 333.064 173.956 327.624 173.956 321.096ZM209.383 321.096C209.383 322.376 210.471 323.464 211.751 323.464C213.095 323.464 214.183 322.376 214.183 321.096V312.328C214.183 311.048 213.095 309.96 211.751 309.96C210.471 309.96 209.383 311.048 209.383 312.328V321.096ZM199.847 288.2H209.383V307.528C209.383 303.624 212.583 300.36 216.551 300.36C220.519 300.36 223.719 303.624 223.719 307.528V325.832C223.719 329.8 220.519 333 216.551 333C212.647 333 209.383 329.8 209.383 325.832V333H199.847V288.2ZM253.863 321.096V312.328C253.863 311.048 252.775 309.96 251.431 309.96C250.151 309.96 249.063 311.048 249.063 312.328V321.096C249.063 322.376 250.151 323.464 251.431 323.464C252.775 323.464 253.863 322.376 253.863 321.096ZM246.695 333C242.727 333 239.527 329.8 239.527 325.832V307.528C239.527 303.624 242.727 300.36 246.695 300.36C250.599 300.36 253.863 303.624 253.863 307.528V300.36H263.399V333H253.863V325.832C253.863 329.8 250.599 333 246.695 333ZM275.626 321.096C275.626 322.376 276.714 323.464 277.994 323.464C279.338 323.464 280.426 322.376 280.426 321.096V312.328C280.426 311.048 279.338 309.96 277.994 309.96C276.714 309.96 275.626 311.048 275.626 312.328V321.096ZM266.09 307.528C266.09 303.624 269.29 300.36 273.258 300.36C277.162 300.36 280.426 303.624 280.426 307.528V300.36H289.962V333.192C289.962 339.208 285.482 344.264 279.658 345.032V345.16H271.53V335.624H277.994C279.338 335.624 280.426 334.536 280.426 333.192V325.832C280.426 329.8 277.162 333 273.258 333C269.29 333 266.09 329.8 266.09 325.832V307.528ZM306.412 311.368C306.028 310.536 305.196 309.96 304.172 309.96C302.892 309.96 301.804 311.048 301.804 312.328V312.648L306.412 311.368ZM292.268 321.096V312.328C292.268 305.8 297.644 300.36 304.236 300.36C307.884 300.36 311.212 302.088 313.388 304.712C321.26 314.184 308.012 316.872 301.804 318.536V321.096C301.804 322.376 302.892 323.464 304.236 323.464C305.516 323.464 306.604 322.376 306.604 321.096V319.112H316.14V321.096C316.14 327.624 310.764 333.064 304.172 333.064C297.644 333.064 292.268 327.624 292.268 321.096ZM318.16 300.36H327.696V307.528C327.696 303.624 330.896 300.36 334.864 300.36C338.832 300.36 342.032 303.624 342.032 307.528V333H332.496V312.328C332.496 311.048 331.408 309.96 330.064 309.96C328.784 309.96 327.696 311.048 327.696 312.328V333H318.16V300.36ZM344.206 321.096V312.328C344.206 305.736 349.582 300.36 356.11 300.36C362.702 300.36 368.078 305.736 368.078 312.328V314.312H358.542V312.328C358.542 311.048 357.454 309.96 356.174 309.96C354.83 309.96 353.742 311.048 353.742 312.328V321.096C353.742 322.376 354.83 323.464 356.174 323.464C357.454 323.464 358.542 322.376 358.542 321.096V319.112H368.078V321.096C368.078 327.624 362.702 333.064 356.11 333.064C349.582 333.064 344.206 327.624 344.206 321.096ZM369.453 300.36H378.925L381.357 323.464L383.853 300.36H393.325L389.933 333V333.192C389.933 339.208 385.389 344.264 379.629 345.032V345.16H371.501V335.624H377.965C379.245 335.624 380.333 334.536 380.333 333.192V333H372.845L369.453 300.36Z" fill="#0012D6"/>
<path d="M148.046 207.115C148.578 207.601 149.443 207.561 149.928 207.029C150.438 206.471 150.398 205.606 149.866 205.121L146.223 201.796C145.692 201.311 144.827 201.35 144.317 201.909C143.832 202.441 143.872 203.305 144.403 203.791L148.046 207.115ZM130.763 198.604L134.379 194.642L142.409 201.971C140.787 200.49 140.644 197.923 142.149 196.274C143.653 194.626 146.223 194.534 147.845 196.014L155.45 202.955C157.099 204.459 157.215 207.002 155.71 208.651C154.23 210.273 151.663 210.416 150.014 208.911L152.992 211.629L149.376 215.591L130.763 198.604Z" fill="#0012D6"/>
<path d="M149.984 186.559L146.431 182.492L150.47 178.963L154.023 183.029L149.984 186.559ZM150.932 187.643L154.971 184.113L167.052 197.938L163.013 201.468L150.932 187.643Z" fill="#0012D6"/>
<path d="M173.093 184.809C173.503 185.401 174.354 185.556 174.946 185.146C175.568 184.716 175.723 183.865 175.313 183.273L172.507 179.217C172.097 178.625 171.246 178.47 170.624 178.9C170.032 179.31 169.877 180.161 170.287 180.753L173.093 184.809ZM164.339 181.585C163.09 179.78 163.525 177.246 165.361 175.975C167.166 174.726 169.721 175.191 170.971 176.997L168.676 173.681L173.087 170.629L183.596 185.815C185.522 188.598 185.068 192.371 182.62 194.59L182.661 194.649L178.901 197.251L175.849 192.84L178.839 190.771C179.46 190.341 179.615 189.489 179.185 188.868L176.829 185.463C178.099 187.299 177.614 189.824 175.808 191.073C173.973 192.343 171.468 191.887 170.198 190.052L164.339 181.585Z" fill="#0012D6"/>
<path d="M190.572 174.168C190.897 174.81 191.72 175.08 192.362 174.755C193.037 174.413 193.306 173.591 192.981 172.948L190.754 168.548C190.429 167.906 189.606 167.636 188.932 167.977C188.289 168.302 188.02 169.125 188.345 169.767L190.572 174.168ZM182.34 169.78C181.348 167.821 182.125 165.37 184.116 164.362C186.076 163.371 188.543 164.18 189.535 166.139L187.714 162.541L192.5 160.119L200.84 176.597C202.368 179.616 201.404 183.292 198.676 185.156L198.708 185.221L194.629 187.285L192.207 182.499L195.451 180.857C196.125 180.516 196.395 179.694 196.054 179.019L194.184 175.325C195.192 177.317 194.367 179.752 192.407 180.744C190.416 181.751 187.997 180.958 186.989 178.967L182.34 169.78Z" fill="#0012D6"/>
<path d="M204.499 169.2L204.065 167.941L209.137 166.194C209.36 166.84 210.046 167.175 210.693 166.952L210.931 166.87C211.544 166.659 211.912 165.961 211.69 165.314C210.822 162.795 204.288 168.587 201.955 161.814C199.598 154.972 212.294 150.599 214.651 157.44L215.085 158.7L210.013 160.447C209.79 159.8 209.07 159.477 208.457 159.688L208.219 159.77C207.572 159.993 207.237 160.68 207.46 161.326C208.328 163.845 214.862 158.053 217.195 164.827C219.552 171.668 206.856 176.041 204.499 169.2Z" fill="#0012D6"/>
<path d="M236.933 147.124L242.272 146.611L242.657 150.625C242.447 148.439 244.064 146.439 246.285 146.226C248.507 146.012 250.475 147.668 250.685 149.854L252.054 164.116L246.715 164.629L245.603 153.054C245.534 152.337 244.867 151.787 244.114 151.859C243.397 151.928 242.847 152.595 242.916 153.312L244.027 164.887L238.688 165.4L236.933 147.124Z" fill="#0012D6"/>
<path d="M279.127 158.649C279.026 159.362 279.546 160.054 280.259 160.154C281.008 160.26 281.699 159.74 281.8 159.027L282.489 154.143C282.59 153.43 282.07 152.739 281.321 152.633C280.608 152.532 279.916 153.053 279.816 153.766L279.127 158.649ZM276.401 139.577L281.713 140.327L280.193 151.092C280.5 148.918 282.539 147.351 284.749 147.663C286.959 147.975 288.485 150.045 288.178 152.219L286.739 162.414C286.427 164.624 284.393 166.155 282.183 165.843C280.009 165.536 278.442 163.497 278.754 161.287L278.191 165.28L272.879 164.53L276.401 139.577Z" fill="#0012D6"/>
<path d="M298.801 162.604C298.605 163.297 299.026 164.053 299.718 164.25C300.446 164.456 301.202 164.035 301.398 163.342C302.472 159.568 301.674 162.373 302.747 158.599C302.944 157.906 302.523 157.15 301.796 156.943C301.103 156.746 300.347 157.168 300.15 157.86L298.801 162.604ZM293.642 161.137L294.991 156.393C295.995 152.861 299.741 150.745 303.273 151.749C306.839 152.763 308.911 156.534 307.907 160.066C306.834 163.84 307.631 161.035 306.558 164.809C305.554 168.341 301.808 170.458 298.242 169.444C294.71 168.439 292.638 164.669 293.642 161.137Z" fill="#0012D6"/>
<path d="M318.331 169.4C318.042 170.059 318.356 170.866 319.015 171.155C319.708 171.459 320.514 171.145 320.803 170.486L322.787 165.97C323.076 165.311 322.762 164.504 322.07 164.2C321.411 163.911 320.604 164.225 320.315 164.884L318.331 169.4ZM316.489 160.255C317.372 158.245 319.758 157.287 321.802 158.185C323.813 159.068 324.755 161.487 323.872 163.498L325.494 159.806L330.405 161.963L322.979 178.872C321.618 181.971 318.167 183.561 314.994 182.64L314.965 182.705L310.779 180.867L312.936 175.956L316.265 177.418C316.957 177.722 317.764 177.408 318.068 176.715L319.732 172.925C318.835 174.968 316.43 175.878 314.419 174.995C312.376 174.098 311.451 171.726 312.349 169.682L316.489 160.255Z" fill="#0012D6"/>
<path d="M338.296 166.064L342.858 168.886L340.736 172.315C341.892 170.447 344.388 169.833 346.287 171.007C348.185 172.181 348.749 174.69 347.594 176.557L340.056 188.742L335.494 185.92L341.612 176.031C341.991 175.419 341.792 174.577 341.149 174.179C340.537 173.8 339.695 173.998 339.316 174.611L333.198 184.499L328.637 181.677L338.296 166.064Z" fill="#0012D6"/>
<path d="M356.209 192.788L359.364 188.998C359.825 188.445 359.746 187.583 359.165 187.099C358.612 186.638 357.75 186.717 357.289 187.271L354.134 191.061C353.673 191.614 353.752 192.476 354.305 192.937C354.886 193.421 355.748 193.342 356.209 192.788ZM348.826 195.355C347.11 193.927 346.879 191.392 348.307 189.676L354.894 181.764C356.299 180.076 358.857 179.816 360.573 181.245C362.26 182.65 362.497 185.235 361.092 186.923L363.671 183.824L367.794 187.256L356.047 201.366L351.924 197.934L354.504 194.836C353.076 196.551 350.513 196.76 348.826 195.355Z" fill="#0012D6"/>
<path d="M374.19 193.358L377.806 197.32L374.828 200.038C376.45 198.558 379.019 198.65 380.524 200.299C382.028 201.947 381.886 204.514 380.264 205.995L377.445 208.567L373.829 204.605L374.653 203.853C375.185 203.367 375.225 202.503 374.715 201.944C374.23 201.413 373.365 201.373 372.833 201.858L364.244 209.697L360.628 205.735L374.19 193.358Z" fill="#0012D6"/>
</svg>
